<svg id="Layer_1" data-name="Layer 1" xmlns="http://www.w3.org/2000/svg" viewBox="0 0 81.45 29.84"><defs><style>.cls-1{fill:none;stroke:#000;stroke-linecap:round;stroke-linejoin:round;stroke-width:2px;}</style></defs><title>noun_eyes_855984</title><path id="a" class="cls-1" d="M64.35,45.7,66,44l2.7,1.7,3.2,1.1a10.31,10.31,0,0,0,3.3.3,16,16,0,0,0,3.8-.7,23,23,0,0,0,3.1-1.5c.9-.6,1.7-1.17,2.4-1.7l1.75,1.7m-2.8,2.3c-.2-.37-.65-1.13-1.35-2.3M67.75,47.8l1-2.15m11,3.15L79,46.35m-3.75,3.1c.1-1.6.08-2.4,0-2.4m-4,1.9.65-2.2M61.05,29.2a23.14,23.14,0,0,1,9.45-6.3q11.5-4.35,21.2,6M16.05,45.7,17.75,44l2.7,1.7,3.2,1.1a10.48,10.48,0,0,0,3.3.3,16,16,0,0,0,3.8-.7,33,33,0,0,0,3.15-1.5l2.35-1.7L38,44.85M23.05,49l.6-2.2M27,49.45c.1-1.6.08-2.4-.05-2.4m4.5,1.75-.7-2.45m4.4.8a17.75,17.75,0,0,0-1.25-2.3M19.5,47.8l.95-2.15M12.25,29.2a23.5,23.5,0,0,1,9.55-6.3q11.51-4.35,21.2,6" transform="translate(-11.25 -20.61)"/></svg>