<?xml version="1.0" encoding="utf-8"?>
<!-- Generator: Adobe Illustrator 23.0.6, SVG Export Plug-In . SVG Version: 6.00 Build 0)  -->
<svg xmlns="http://www.w3.org/2000/svg" viewBox="0 0 96.42 38.23"><title>noun_eyes_1772474</title><g id="Layer_1" data-name="Layer 1"><path d="M78.3,41.89l2-1.38c0,.43-.42.52-.64.76a1.82,1.82,0,0,1-.76.58c.39,0,.39,0,.82-.29a3.44,3.44,0,0,1,.8-.55c.08.24-.2.28-.18.52.56-.19,1-.69,1.64-.73,0,.39-.67.54-.31,1,.26.05.25-.37.55-.32.34.83-.73.81-.85,1.45a8.33,8.33,0,0,0,1.43-1c.12-.1.27-.3.36-.22s.66.11.69.29c.06.39.2.29.43.23s.55-.29.7-.06-.21.45-.36.66c-.31.41-.84.53-1.21.88.64-.09,1.11-.64,1.83-.71-.11.47-.59.46-.74.8.37.1.63-.36,1-.2.11.29-.25.28-.28.47s.13,0,.2,0A5.45,5.45,0,0,1,86,44c.1,0,.22,0,.23.12a.28.28,0,0,1-.09.19q-.25.18-.51.33c-.17.1-.37.17-.45.4.58,0,1-.6,1.66-.46-.36.56-1,.65-1.45,1.18.69-.16,1.22-.68,2-.57,0,.48-.57.43-.71.81.34-.08.63-.18.94-.23s.62.12.49.55-.14.45.27.46c.17,0,.35-.06.54.1-.16,1-1.29.78-1.83,1.4a1.58,1.58,0,0,0,.76-.22,2.07,2.07,0,0,1,.88-.18c.25,0,.43.07.27.35s-.06.37.21.37l.3,0c.13,0,.27,0,.31.15s-.1.27-.24.32a1.54,1.54,0,0,0-.71.38c.24.13.43,0,.62,0s.72-.17.38.41c-.14.23.3.22.2.4-.19.33.49.37.21.77s.3.39.35.66c0,.1.11.21.08.28-.16.39.08.57.34.76s.2.22.07.3c-.46.28-.06.45.12.6-.23.23-.43.13-.62.11s-.65-.09-1-.11-.55,0-.45.52a8.77,8.77,0,0,1-.28,3.81c-.1.43-.09.46.37.5s.76,0,1.14,0c.16,0,.34,0,.47.14-.21.31-.56.06-.8.29.13.3.55.06.68.4-.44.27-.95-.05-1.41.11.12.33.52.12.73.41a.72.72,0,0,0-.91.68c0,.29-.25.27-.45.27s-.5-.09-.47.36c0,.23-.38.22-.49.49s.46.15.45.45a5.19,5.19,0,0,0-1.69.71,1.68,1.68,0,0,0-.29.24c-.19.22,0,.8-.58.65-.17.33-.53.32-.79.43s0,.26,0,.37.15.2.08.33c-.32.28-.44-.33-.73-.14s-.42.45-.65.47a3.52,3.52,0,0,0-1.45.6c-.2.12-.39.21-.36.51s-.16.41-.43.39a2,2,0,0,0-1.54.43c-.86,0-1.5.64-2.34.68-.17,0-.23.18-.32.29a.26.26,0,0,1-.33.1c-.82-.35-1.63.06-2.44,0-.3,0-.23.45-.51.47s-.17-.24-.19-.37-.11-.24-.25-.19c-.49.18-1-.16-1.52.17-.14.1-.24-.14-.37-.19-.44-.16-.89-.38-1.27.14-.16.21-.37.18-.47-.07-.27-.68-.91-.69-1.47-.72a1.71,1.71,0,0,1-.77-.1.53.53,0,0,0-.67.12c-.15-.11-.12-.19-.1-.26.11-.28,0-.43-.26-.26s-.65.17-.9-.25a1.14,1.14,0,0,0-.65-.45c-1.07-.32-.88-.17-1.67-1-.53-.58-1-1.18-1.56-1.78a12.8,12.8,0,0,1-1.55-2.68,12.52,12.52,0,0,1-1-2.28,17.74,17.74,0,0,1-.62-4.7,9.53,9.53,0,0,1,1.25-5,31,31,0,0,0,1.76-3.74c.05-.13.11-.31.2-.29.49.08.51-.29.61-.58s.18-.66.64-.6a1.42,1.42,0,0,1,1.26-.76c.16,0,.12-.3.15-.47s.09-.34.24-.35.24.21.25.39,0,.1,0,.2c.25-.27.35-.62.62-.84.07-.06.18-.2.23-.15.45.5.52-.07.6-.25.2-.47.67-.19,1-.54,0,.47-.31.69-.33,1,.34-.09.4-.41.54-.63a8.44,8.44,0,0,1,.7-1c.12-.13.23-.28.42-.06s.22,0,.29-.1.23-.33.4-.58a4.54,4.54,0,0,0-1.63.4c-.94.53-1.9,1-2.81,1.63A22.76,22.76,0,0,0,61.62,44l-.32.32A15,15,0,0,0,58,48.83a4,4,0,0,1-.33.51.27.27,0,0,1-.33.12c-.13-.07-.1-.22,0-.34a11.55,11.55,0,0,1,.95-1.63,14.86,14.86,0,0,0,1.24-1.81,1.9,1.9,0,0,1,.26-.37,27.57,27.57,0,0,1,5.4-4.47,6.31,6.31,0,0,0,.71-.42A12.84,12.84,0,0,1,71,38.56a20.58,20.58,0,0,1,3.59-.42,17.07,17.07,0,0,1,4.34.59A25.74,25.74,0,0,1,82.6,40a14,14,0,0,1,3.18,2.14c.89.7,1.71,1.48,2.58,2.21A8.43,8.43,0,0,1,89.7,45.7c.24.32.59.53.92.91a1,1,0,0,1-.91-.42,35.51,35.51,0,0,0-5.19-4.61,6,6,0,0,0-1.35-1,19.36,19.36,0,0,0-3.37-1.29,1.8,1.8,0,0,1-.22-.06c-1.48-.75-3.13-.69-4.71-.94a7.61,7.61,0,0,0-2,.14,20.86,20.86,0,0,0-2.6.48c-.37.08-.55.29-.59.77.27-.21.52-.26.74-.44.39-.33.4-.31.61.22a.42.42,0,0,0,.08.12c.3,0,.51-.39.91-.16.18.1.29-.37.62-.42a.66.66,0,0,1,0,.79l-.4.72c0,.09-.11.19,0,.26a.22.22,0,0,0,.32-.11c.18-.35.36-.72.54-1.08a1.72,1.72,0,0,1,.59-.76c.07.71-.59,1-.63,1.6.39-.12.38-.13.71-.7.17-.3.22-.74.76-.8-.09.69-.77,1-.91,1.69.31,0,.39-.2.5-.34l.66-.83c.08-.09.18-.18.32-.11a1.11,1.11,0,0,0,1.16-.11c.15-.1.35-.19.48,0a.44.44,0,0,1,0,.62,4.34,4.34,0,0,0-.8,1c.24.15.27-.07.35-.16.29-.34.57-.7.88-1s.38-.28.51.2c.27,0,.36-.36.72-.31a2.44,2.44,0,0,1-.92.83c-.3.14-.7.33-.44.85.74-.22,1-1.13,1.88-1.37-.38.72-1.18.92-1.41,1.69.95-.16,1.34-1.06,2.26-1.46C79.36,40.87,78.49,41,78.3,41.89Zm10,11.51a6,6,0,0,0-1.12,0A.6.6,0,0,1,86.4,53a9.84,9.84,0,0,1-.62-1.46,1.32,1.32,0,0,0-.73-1c-.17-.08-.16-.18-.07-.29A.21.21,0,0,0,85,50a9.26,9.26,0,0,0-2-3.13,11.21,11.21,0,0,0-1.33-1.43c-.81-.57-1.55-1.26-2.34-1.87a6.53,6.53,0,0,0-2.23-1.2,18.89,18.89,0,0,0-4.54-.68c-.47,0-.88.2-1.34.2a8.86,8.86,0,0,0-5.09,1.61c-.92.63-1.8,1.3-2.7,1.94a9.22,9.22,0,0,0-1.8,1.61,5.29,5.29,0,0,0-1.36,2c-.18.78-.58,1.48-.72,2.26a17.36,17.36,0,0,0-.35,2.16,19.31,19.31,0,0,0,.6,4.8A9.3,9.3,0,0,0,62,62.47a1.48,1.48,0,0,1,.3.42c.17.52.59.57,1,.56.16,0,.31,0,.4.1.28.45.82.57,1.17.92a4.92,4.92,0,0,0,2.52,1.12,17,17,0,0,0,3.76.38,25.52,25.52,0,0,0,5.14-.56,13.31,13.31,0,0,0,3.08-1.12,26.74,26.74,0,0,0,5.54-3.78,4.41,4.41,0,0,0,1-1.29,1.28,1.28,0,0,1,.94-.65,1.46,1.46,0,0,0,1.35-1.18,5.39,5.39,0,0,0,.16-1.5C88.34,55.09,88.31,54.29,88.27,53.4ZM84.12,42.73a3.22,3.22,0,0,0-2.24,1.64C82.65,43.79,83.42,43.35,84.12,42.73Zm-.74,3a3.1,3.1,0,0,0,1-.68.21.21,0,0,0,0-.27c-.07-.11-.16,0-.25,0A1.2,1.2,0,0,0,83.38,45.68Zm-14-5-.14,0c-.22,0-.45,0-.55.32a.12.12,0,0,0,.1.16c.3.09.48-.07.59-.33A.57.57,0,0,0,69.33,40.7Zm6.51,26a.45.45,0,0,0,0,.58.16.16,0,0,0,.12,0A.34.34,0,0,0,75.84,66.66Zm6-23.22c.22-.08.47-.12.56-.46A.81.81,0,0,0,81.85,43.44ZM76,39.82a.43.43,0,0,0-.37.45C75.84,40.09,76,40.07,76,39.82Zm8.8,6.65c-.14,0-.2,0-.23.07s-.27.14-.11.25S84.71,46.66,84.83,46.47Z" transform="translate(-1.58 -30.92)"/><path d="M78.85,33.33l.61-.42c.12-.09.27-.24.39-.09s-.07.32-.19.42-.4.22-.53.41c.07.21.22.19.36.13a4.11,4.11,0,0,0,1.11-.64c.39-.35.71-.3.93.19s.44-.14.62.1-.14.35-.09.56c.06,0,.14,0,.2,0,.3-.11.65-.12.87-.41.08-.12.17-.19.29-.07a.24.24,0,0,1,0,.39c-.2.11-.42.18-.62.28s-.49.07-.71.35a1.71,1.71,0,0,0,1.07,0A13.83,13.83,0,0,0,84.7,34c.16-.06.47-.2.37.24,0,.2.14.16.25.16.29,0,.59-.17.89,0,.13.06.33.06.32.26s-.14.2-.25.26-.2,0-.23.21c.51.21,1,.5,1.59.12a.56.56,0,0,1,.29,0c.12,0,.28,0,.3.16s-.14.17-.24.23-.08.07-.11.1.05.12.07.12a5.68,5.68,0,0,1,2.6,1c.59.29,1.18.56,1.78.84.13.07.29.11.41.19,1.63,1.1,3.39,2,5.09,2.94A1.12,1.12,0,0,1,98,41c-.48.37-.85-.1-1.26-.12s-.67-.54-1.21-.56c.12.31.44.36.53.6s.14.23,0,.34a.24.24,0,0,1-.28,0,2.61,2.61,0,0,1-1.59-1.3.94.94,0,0,0-.47-.45,22.29,22.29,0,0,0-6.88-2.63,7.86,7.86,0,0,1-2.3-.71A1.86,1.86,0,0,0,84,36a3.15,3.15,0,0,1-1.23-.31.89.89,0,0,0-.51-.1,16.28,16.28,0,0,1-2.51-.16c-.85,0-1.71-.09-2.56-.16-.48,0-1,.09-1.4-.37a.27.27,0,0,0-.22,0,8.41,8.41,0,0,1-2.65.07c-.91.05-1.81.19-2.71.29-.45,0-.89.13-1.34.19a1.07,1.07,0,0,0-.56.22c-.22.21-.41.46-.72.12,0,0-.1,0-.14,0a11.59,11.59,0,0,0-2.48.64,2.27,2.27,0,0,1-.83.28c-.32,0-.64.12-1,.19-.1,0-.25,0-.27.12-.19.57-.68.58-1.14.64a2.48,2.48,0,0,1-1.82-.32,1.52,1.52,0,0,0-.33-.18c-.22-.08-.3.11-.42.24a.23.23,0,0,0,0,.38c.12.13.41.24.2.47s-.41.12-.63,0a5.67,5.67,0,0,1-2.22-1.88A1.16,1.16,0,0,1,56.39,35a.65.65,0,0,0,.08-.27c0-.29.17-.25.36-.23a2.07,2.07,0,0,1,.9.51c.18.14.27.29.46,0s.26-.08.4,0,.23.17.13,0c-.2-.43.27-.74.16-1.14,0-.05.09-.19.17-.22s.22.08.26.21.17.52.28.78.11.45.47.49a8.25,8.25,0,0,1,0-2.1.94.94,0,0,1,.49.75.7.7,0,0,0,.49.64,3.39,3.39,0,0,0,.11-1.34c0-.14-.06-.35.12-.38s.19.22.23.37,0,.14.05.22c.47-.06.61-.48.9-.9.19.71-.05,1.36.24,2.07.39-.91.43-1.78.72-2.6.07.5.6.78.51,1.35a2.61,2.61,0,0,0,.1,1.46c.3-.46,0-1,.26-1.47s.2-1,.56-1.48a11.54,11.54,0,0,1-.11,1.9c.47-.31.26-.91.78-1.07s.31-.74.77-.85c.17.28-.07.51,0,.77.17.11.43,0,.62.29.18-.57.36-1.1.53-1.63.3.63-.26,1.12-.08,1.75.38-.42.4-1.06.87-1.36.27.11,0,.42.3.52s.22-.57.68-.52l-.12,1.69a3.56,3.56,0,0,0,1-1.4.87.87,0,0,1,.21-.39.15.15,0,0,1,.2,0,.29.29,0,0,1,.13.18.74.74,0,0,1-.22.47,1.91,1.91,0,0,0-.36,1.28l.67-1.19a2.23,2.23,0,0,1,.93-1.19c-.2.71-.72,1.09-.83,1.75.5-.29.72-.79,1.2-1,.22.4-.25.64-.18,1,.55-.29.92-.79,1.49-1.12.08.34-.13.6-.06.9s-.38.43-.38.83a1,1,0,0,0,.81-.62c.27-.73,1-.93,1.48-1.43-.09.64-.78.9-1,1.56.81-.38,1.35-1.08,2.23-1.41-.1.54-.58.64-.67,1,.11.09.26.15.33.26.2.27.36.18.57,0a4.27,4.27,0,0,0,.87-.72c.11-.14.24-.27.44-.16s-.21.28-.15.47a1.6,1.6,0,0,0,1.23,0c0,.44-.54.68-.28,1.1-.45-.24-.45-.24-.83.22C78.37,33.74,78.57,33.4,78.85,33.33Zm6.67,1.33c-.58.1-1.21-.19-1.82.18A1.61,1.61,0,0,0,85.52,34.66Zm-23.43.75A1.93,1.93,0,0,0,62,33.85C61.58,34.86,61.59,35.07,62.09,35.41Zm6.3-1.7a1.63,1.63,0,0,0,.39-1.06A1.46,1.46,0,0,0,68.39,33.71Zm9-.48c.31-.11.67-.12.9-.6A1.22,1.22,0,0,0,77.37,33.23ZM66.18,34.67a.57.57,0,0,0,.19-.81C66.17,34.14,66.05,34.34,66.18,34.67Zm9.65-1.4a.21.21,0,0,0,.24-.27c0-.06,0-.15-.14-.12a.34.34,0,0,0-.26.21C75.64,33.2,75.72,33.26,75.83,33.27Zm4.8.62s-.19,0-.17.15.17.14.28.14a.14.14,0,0,0,.15-.19C80.86,33.89,80.76,33.86,80.63,33.89ZM57.07,35.44a1.14,1.14,0,0,0-.14-.16s-.12,0-.1,0a.41.41,0,0,0,.12.17S57,35.45,57.07,35.44Z" transform="translate(-1.58 -30.92)"/><path d="M90.77,62a1.86,1.86,0,0,1-.69.9,28.16,28.16,0,0,1-3.45,2.68,23.63,23.63,0,0,1-3.29,1.67,29.43,29.43,0,0,1-3,1,24.52,24.52,0,0,1-6.19.92,34.38,34.38,0,0,1-5-.46,22.22,22.22,0,0,1-4.14-1.14,10.22,10.22,0,0,1-4-2.12,11.18,11.18,0,0,1-1.28-1.67c-.12-.16-.13-.34.07-.44s.26.07.34.2c.31.52.69,1,1,1.47a5,5,0,0,0,1.91,1.32c1,.49,2,.77,3,1.16A23.18,23.18,0,0,0,71,68.59a15.37,15.37,0,0,0,4.74.13A37.85,37.85,0,0,0,80,68a21,21,0,0,0,8.09-3.91,15.27,15.27,0,0,0,2.27-2A.3.3,0,0,1,90.77,62Z" transform="translate(-1.58 -30.92)"/><path d="M72.78,43.13a8.07,8.07,0,0,1,4.59,1.33,10.18,10.18,0,0,1,2.12,1.29,8.84,8.84,0,0,1,2,2.47,20.9,20.9,0,0,1,2,6.07,2.68,2.68,0,0,1,0,.75,10.77,10.77,0,0,1-1.61,4.66,12.55,12.55,0,0,1-2.18,2.19A8.6,8.6,0,0,1,75,63.77a9.85,9.85,0,0,1-4.78-.36c-.57-.19-1.13-.42-1.71-.6a6.69,6.69,0,0,1-3.43-2.38,10.18,10.18,0,0,1-2.14-5.08,13.35,13.35,0,0,1,1-6.56,7.88,7.88,0,0,1,2.66-3.42,8.51,8.51,0,0,1,3.14-1.6,1.62,1.62,0,0,0,.41-.17A4.13,4.13,0,0,1,72.78,43.13Zm.44,20.32c2.13-.12,4.21-.35,6-1.74a9,9,0,0,0,3.3-4.11A6.65,6.65,0,0,0,83,54.42a20.61,20.61,0,0,0-1.32-4.94,7.84,7.84,0,0,0-3-3.83,15.28,15.28,0,0,0-3.77-1.88,6.27,6.27,0,0,0-4.51.13c-.76.33-1.48.73-2.23,1.08a7.38,7.38,0,0,0-3.8,4.12,14.35,14.35,0,0,0-.8,6.6A8.29,8.29,0,0,0,64.66,59a8.1,8.1,0,0,0,2.77,2.93,8.11,8.11,0,0,0,1.69.6A9.6,9.6,0,0,0,73.22,63.45Z" transform="translate(-1.58 -30.92)"/><path d="M76.49,49.83c.16-.39-.06-.53-.28-.66a.52.52,0,0,1-.28-.63c.1-.62.2-1.24.33-1.86s.44-.71,1-.51a3.09,3.09,0,0,1,2,1.75,6.69,6.69,0,0,1,.33,1.39c.09.52-.32.87-.87.8a11.38,11.38,0,0,0-1.45,0c-.12.2,0,.29,0,.39a4,4,0,0,1,.12,4.31,4.16,4.16,0,0,1-2.92,2.41c-1.74.39-4.83-.37-5.32-3.23a3.61,3.61,0,0,1-.06-1.93,3.8,3.8,0,0,1,1.36-1.94.51.51,0,0,0,.21-.7,16.68,16.68,0,0,0-.86-2.26,1,1,0,0,1,.3-1.45A2.86,2.86,0,0,1,72,45a10.63,10.63,0,0,0,1.49-.18c1-.13,1.31.14,1.42,1.07A19.44,19.44,0,0,1,75,48.52c0,.46.1.74.56.88A8.46,8.46,0,0,1,76.49,49.83Zm-1.82-.72c0-.45.07-.91.07-1.36a5.25,5.25,0,0,0-.25-2.08c-.23-.56-.35-.67-1-.56s-1.2.18-1.8.24a2.9,2.9,0,0,0-1.53.77.6.6,0,0,0-.19.73A35.08,35.08,0,0,0,72.23,52a1.28,1.28,0,0,0,.47.48,1.6,1.6,0,0,0,1.46,0c.41-.15.38-.53.42-.88C74.67,50.72,74.56,49.91,74.67,49.11Zm1.54-1c0,.4,0,.65.27.84a.8.8,0,0,1,.33.4c.15.52.57.54,1,.51a9.28,9.28,0,0,1,1-.08c.3,0,.39-.22.4-.46a2.9,2.9,0,0,0-2-2.88.44.44,0,0,0-.64.31A6.35,6.35,0,0,0,76.21,48.12Z" transform="translate(-1.58 -30.92)"/><path d="M19.81,40.11c.92.4,1.32,1.3,2.26,1.46-.22-.77-1-1-1.41-1.69.91.24,1.14,1.15,1.89,1.37.25-.52-.15-.71-.45-.85a2.44,2.44,0,0,1-.92-.83c.36,0,.46.3.72.31.13-.48.21-.52.51-.2s.59.69.89,1c.07.09.1.31.34.16a4.1,4.1,0,0,0-.8-1,.45.45,0,0,1,0-.62c.14-.18.33-.09.48,0a1.11,1.11,0,0,0,1.16.11c.14-.07.24,0,.32.11.23.27.44.55.66.83s.2.33.5.34c-.14-.67-.81-1-.91-1.69.54.06.59.5.76.8.33.57.32.58.72.7-.05-.56-.71-.89-.64-1.6a1.72,1.72,0,0,1,.59.76c.19.36.36.73.55,1.08a.21.21,0,0,0,.31.11c.12-.07.06-.17,0-.26l-.41-.72a.66.66,0,0,1,0-.79c.33.05.44.52.62.42.4-.23.61.17.91.16a.94.94,0,0,0,.09-.12c.2-.53.21-.55.61-.22.21.18.46.23.73.44,0-.48-.21-.69-.59-.77a20.86,20.86,0,0,0-2.6-.48,7.61,7.61,0,0,0-1.95-.14c-1.58.25-3.23.19-4.71.94a1.41,1.41,0,0,1-.22.06,19.36,19.36,0,0,0-3.37,1.29,5.76,5.76,0,0,0-1.34,1,35,35,0,0,0-5.19,4.61,1,1,0,0,1-.92.42c.33-.38.68-.59.92-.91a8.43,8.43,0,0,1,1.34-1.33c.87-.73,1.69-1.51,2.58-2.21A14,14,0,0,1,17,40a25.32,25.32,0,0,1,3.7-1.29A17,17,0,0,1,25,38.14a20.58,20.58,0,0,1,3.59.42,12.84,12.84,0,0,1,5.07,1.86,7.34,7.34,0,0,0,.71.42,27.28,27.28,0,0,1,5.4,4.47,1.55,1.55,0,0,1,.26.37,14.86,14.86,0,0,0,1.24,1.81,11.55,11.55,0,0,1,1,1.63c.06.12.09.27,0,.34a.27.27,0,0,1-.33-.12,4,4,0,0,1-.33-.51,15,15,0,0,0-3.26-4.5L38,44a22.25,22.25,0,0,0-3.35-2.7c-.91-.58-1.87-1.1-2.81-1.63a4.54,4.54,0,0,0-1.63-.4c.18.25.28.42.4.58s.16.24.29.1.3-.07.42.06a8.44,8.44,0,0,1,.7,1c.14.22.2.54.54.63,0-.34-.34-.56-.33-1,.33.35.8.07,1,.54.08.18.16.75.6.25.05,0,.16.09.24.15.27.22.36.57.61.84a.8.8,0,0,0,0-.2c0-.18,0-.4.25-.39s.22.19.24.35,0,.47.15.47a1.41,1.41,0,0,1,1.26.76c.46-.06.53.29.64.6s.12.66.61.58c.09,0,.16.16.21.29a29.53,29.53,0,0,0,1.75,3.74,9.63,9.63,0,0,1,1.26,5,18.16,18.16,0,0,1-.62,4.7,13.29,13.29,0,0,1-1,2.28,12,12,0,0,1-1.55,2.68c-.51.6-1,1.2-1.56,1.78-.78.88-.6.73-1.67,1a1.14,1.14,0,0,0-.65.45c-.24.42-.48.5-.9.25s-.36,0-.26.26c0,.07,0,.15-.1.26a.53.53,0,0,0-.67-.12,1.69,1.69,0,0,1-.77.1c-.56,0-1.2,0-1.47.72-.1.25-.31.28-.46.07-.39-.52-.84-.3-1.28-.14-.13,0-.23.29-.37.19-.48-.33-1,0-1.51-.17-.15,0-.23,0-.26.19s.05.32-.19.37-.21-.48-.51-.47c-.81,0-1.62-.37-2.43,0a.27.27,0,0,1-.34-.1c-.09-.11-.15-.28-.32-.29-.83,0-1.48-.72-2.34-.68a2,2,0,0,0-1.54-.43c-.27,0-.46-.1-.43-.39s-.16-.39-.36-.51a3.48,3.48,0,0,0-1.44-.6c-.23,0-.44-.32-.66-.47s-.41.42-.73.14c-.07-.13.05-.22.09-.33s.14-.21,0-.37-.62-.1-.79-.43c-.6.15-.39-.43-.58-.65a1.37,1.37,0,0,0-.29-.24A5.11,5.11,0,0,0,11.42,62c0-.3.49-.17.45-.45s-.51-.26-.49-.49c0-.45-.23-.35-.47-.36s-.41,0-.45-.27a.72.72,0,0,0-.91-.68c.21-.29.61-.08.73-.41-.46-.16-1,.16-1.4-.11.13-.34.55-.1.67-.4-.24-.23-.59,0-.8-.29.13-.17.31-.13.48-.14.37,0,.75,0,1.13,0s.47-.07.37-.5a8.92,8.92,0,0,1-.27-3.81c.09-.48,0-.54-.46-.52-.32,0-.65.08-1,.11s-.4.12-.63-.11c.19-.15.58-.32.12-.6-.13-.08,0-.22.07-.3s.5-.37.34-.76c0-.07.06-.18.08-.28.05-.27.55-.38.35-.66s.4-.44.21-.77c-.1-.18.34-.17.2-.4-.34-.58.11-.4.38-.41s.38.15.62,0a1.5,1.5,0,0,0-.71-.38c-.14-.05-.29-.14-.24-.32s.19-.15.31-.15l.3,0c.28,0,.37-.09.21-.37s0-.35.27-.35a1.93,1.93,0,0,1,.88.18,1.62,1.62,0,0,0,.76.22c-.54-.62-1.66-.4-1.83-1.4.19-.16.37-.09.54-.1.42,0,.42,0,.28-.46s0-.62.48-.55.61.15.94.23c-.14-.38-.69-.33-.7-.81.73-.11,1.27.41,2,.57-.42-.53-1.1-.62-1.46-1.18.67-.14,1.08.45,1.66.46-.08-.23-.28-.3-.45-.4a5.39,5.39,0,0,1-.5-.33.3.3,0,0,1-.1-.19c0-.13.13-.14.23-.12s.39.09.59.14.13.06.19,0-.39-.18-.27-.47c.37-.16.62.3,1,.2-.15-.34-.63-.33-.73-.8.71.07,1.18.62,1.82.71-.37-.35-.9-.47-1.21-.88-.15-.21-.55-.36-.36-.66s.47,0,.7.06.38.16.44-.23c0-.18.46-.12.68-.29s.24.12.36.22a8.05,8.05,0,0,0,1.44,1c-.13-.64-1.19-.62-.86-1.45.3,0,.29.37.55.32.37-.45-.29-.6-.31-1,.66,0,1.08.54,1.64.73,0-.24-.26-.28-.18-.52a3.5,3.5,0,0,1,.81.55c.42.33.42.34.82.29a1.79,1.79,0,0,1-.77-.58c-.22-.24-.59-.33-.63-.76l2,1.38C21.09,41,20.22,40.87,19.81,40.11Zm-8.6,15.78a5.39,5.39,0,0,0,.16,1.5,1.44,1.44,0,0,0,1.34,1.18,1.27,1.27,0,0,1,.94.65,4.41,4.41,0,0,0,1,1.29,26.54,26.54,0,0,0,5.55,3.78,13.23,13.23,0,0,0,3.07,1.12,25.62,25.62,0,0,0,5.15.56,16.93,16.93,0,0,0,3.75-.38,4.92,4.92,0,0,0,2.52-1.12c.36-.35.89-.47,1.17-.92.09-.14.24-.1.4-.1.43,0,.84,0,1-.56a1.34,1.34,0,0,1,.31-.42,9.38,9.38,0,0,0,2.11-4.21,18.85,18.85,0,0,0,.6-4.8A14.3,14.3,0,0,0,40,51.3c-.14-.78-.53-1.48-.72-2.26a5.18,5.18,0,0,0-1.36-2,9.46,9.46,0,0,0-1.79-1.61c-.91-.64-1.79-1.31-2.7-1.94a8.92,8.92,0,0,0-5.1-1.61c-.46,0-.87-.21-1.34-.2a18.73,18.73,0,0,0-4.53.68,6.48,6.48,0,0,0-2.24,1.2c-.79.61-1.53,1.3-2.34,1.87a11.13,11.13,0,0,0-1.32,1.43,9.13,9.13,0,0,0-2,3.13.21.21,0,0,0,0,.26c.09.11.11.21-.06.29a1.27,1.27,0,0,0-.73,1A11,11,0,0,1,13.19,53a.61.61,0,0,1-.76.44,6,6,0,0,0-1.12,0C11.27,54.29,11.24,55.09,11.21,55.89ZM17.7,44.37a3.22,3.22,0,0,0-2.24-1.64C16.16,43.35,16.93,43.79,17.7,44.37Zm-2.23.34c-.09,0-.19-.09-.26,0a.21.21,0,0,0,0,.27,3,3,0,0,0,1,.68A1.22,1.22,0,0,0,15.47,44.71Zm14.78-3.88c.11.26.29.42.59.33.08,0,.13-.08.1-.16-.09-.27-.33-.28-.55-.32l-.14,0A.57.57,0,0,0,30.25,40.83ZM23.59,67.2a.18.18,0,0,0,.13,0,.47.47,0,0,0,0-.58A.34.34,0,0,0,23.59,67.2ZM17.18,43c.08.34.33.38.55.46A.77.77,0,0,0,17.18,43Zm6.74-2.71a.42.42,0,0,0-.37-.45C23.58,40.07,23.74,40.09,23.92,40.27Zm-8.83,6.52c.16-.11,0-.18-.11-.25s-.08,0-.23-.07C14.87,46.66,15,46.85,15.09,46.79Z" transform="translate(-1.58 -30.92)"/><path d="M21.56,33.56c-.38-.46-.38-.46-.83-.22.26-.42-.25-.66-.28-1.1a1.6,1.6,0,0,0,1.23,0c.06-.19-.26-.25-.15-.47s.33,0,.44.16a4.56,4.56,0,0,0,.87.72c.21.15.38.24.57,0a1.72,1.72,0,0,1,.33-.26c-.08-.39-.57-.49-.67-1,.88.33,1.42,1,2.24,1.41-.19-.66-.87-.92-1-1.56.47.5,1.21.7,1.47,1.43a1,1,0,0,0,.81.62c0-.4-.45-.55-.38-.83s-.13-.56-.06-.9c.57.33.94.83,1.49,1.12.08-.39-.4-.63-.18-1,.48.24.7.74,1.2,1-.11-.66-.63-1-.83-1.75a2.18,2.18,0,0,1,.93,1.19l.67,1.19A1.91,1.91,0,0,0,29.11,32c-.1-.15-.23-.28-.21-.47a.25.25,0,0,1,.12-.18.15.15,0,0,1,.2,0,.71.71,0,0,1,.21.39,3.56,3.56,0,0,0,1,1.4l-.12-1.69c.46-.05.37.48.68.52s0-.41.3-.52c.47.3.49.94.88,1.36.17-.63-.39-1.12-.08-1.75l.53,1.63c.18-.27.44-.18.62-.29,0-.26-.19-.49,0-.77.45.11.39.73.76.85s.31.76.78,1.07a11.54,11.54,0,0,1-.11-1.9c.36.45.29,1,.56,1.48s0,1,.26,1.47a2.61,2.61,0,0,0,.1-1.46c-.09-.57.44-.85.51-1.35.29.82.33,1.69.72,2.6.3-.71.06-1.36.24-2.07.29.42.43.84.91.9a1.43,1.43,0,0,1,0-.22c0-.15-.06-.42.23-.37s.12.24.12.38a3.39,3.39,0,0,0,.11,1.34.7.7,0,0,0,.49-.64,1,1,0,0,1,.49-.75,7.43,7.43,0,0,1,0,2.1c.36,0,.39-.3.47-.49s.19-.52.28-.78.11-.26.26-.21.19.17.18.22c-.11.4.35.71.15,1.14-.1.22.08.08.13,0s.29-.16.4,0,.28.11.46,0a2.05,2.05,0,0,1,.91-.51c.18,0,.37-.06.35.23a.54.54,0,0,0,.09.27,1.18,1.18,0,0,1-.15,1.31,5.7,5.7,0,0,1-2.23,1.88c-.21.11-.46.18-.63,0s.08-.34.21-.47a.23.23,0,0,0,0-.38c-.11-.13-.2-.32-.42-.24a1.45,1.45,0,0,0-.32.18,2.48,2.48,0,0,1-1.82.32c-.47-.06-1-.07-1.15-.64,0-.07-.17-.1-.27-.12-.32-.07-.64-.14-1-.19a2.33,2.33,0,0,1-.83-.28,11.5,11.5,0,0,0-2.47-.64s-.13,0-.15,0c-.31.34-.49.09-.72-.12a1.07,1.07,0,0,0-.55-.22c-.45-.06-.9-.15-1.35-.19-.9-.1-1.8-.24-2.71-.29A8.42,8.42,0,0,1,24,34.84a.28.28,0,0,0-.22,0c-.38.46-.91.33-1.4.37-.85.07-1.71.17-2.56.16a16.28,16.28,0,0,1-2.51.16.9.9,0,0,0-.51.1A3.15,3.15,0,0,1,15.6,36a1.86,1.86,0,0,0-.58.17,7.86,7.86,0,0,1-2.3.71,22.38,22.38,0,0,0-6.88,2.63.94.94,0,0,0-.47.45,2.58,2.58,0,0,1-1.59,1.3.24.24,0,0,1-.28,0c-.12-.11,0-.22,0-.34s.41-.29.53-.6c-.54,0-.75.53-1.2.56s-.79.49-1.27.12a.83.83,0,0,1,.18-.19c1.69-1,3.46-1.84,5.08-2.94.13-.08.28-.12.42-.19L9,36.79a5.68,5.68,0,0,1,2.6-1s0-.08.07-.12-.06-.08-.1-.1-.27-.06-.25-.23.18-.15.3-.16a.54.54,0,0,1,.29,0c.58.38,1.08.09,1.6-.12,0-.18-.15-.17-.24-.21s-.24-.12-.25-.26.19-.2.32-.26c.3-.14.6,0,.9,0,.1,0,.29,0,.24-.16-.09-.44.21-.3.37-.24a15.33,15.33,0,0,0,1.57.54,1.71,1.71,0,0,0,1.07,0c-.22-.28-.5-.25-.71-.35s-.42-.17-.61-.28a.23.23,0,0,1,0-.39c.13-.12.21-.05.3.07.21.29.56.3.86.41.06,0,.14,0,.21,0,0-.21-.23-.36-.1-.56s.43.36.63-.1.53-.54.92-.19a4.11,4.11,0,0,0,1.11.64c.14.06.3.08.36-.13-.13-.19-.36-.26-.53-.41s-.34-.22-.18-.42.26,0,.39.09l.61.42C21,33.4,21.22,33.74,21.56,33.56Zm-5.68,1.28c-.61-.37-1.24-.08-1.82-.18A1.61,1.61,0,0,0,15.88,34.84Zm21.71-1a1.88,1.88,0,0,0-.1,1.56C38,35.07,38,34.86,37.59,33.85Zm-6.79-1.2a1.63,1.63,0,0,0,.4,1.06A1.52,1.52,0,0,0,30.8,32.65Zm-9.49,0c.23.48.6.49.9.6A1.2,1.2,0,0,0,21.31,32.63Zm11.9,1.23a.57.57,0,0,0,.19.81A.74.74,0,0,0,33.21,33.86Zm-9.3-.77a.34.34,0,0,0-.26-.21c-.11,0-.12.06-.13.12a.21.21,0,0,0,.23.27C23.86,33.26,23.94,33.2,23.91,33.09ZM18.7,34a.13.13,0,0,0,.14.19c.11,0,.26,0,.29-.14s-.12-.12-.18-.15S18.73,33.89,18.7,34Zm23.93,1.48a.33.33,0,0,0,.12-.17s0-.06-.1,0a1.14,1.14,0,0,0-.14.16C42.56,35.45,42.61,35.48,42.63,35.47Z" transform="translate(-1.58 -30.92)"/><path d="M8.81,62a1.86,1.86,0,0,0,.69.9A28.94,28.94,0,0,0,13,65.54a24.2,24.2,0,0,0,3.29,1.67,29.43,29.43,0,0,0,3,1,24.52,24.52,0,0,0,6.19.92,34.52,34.52,0,0,0,5-.46,22.66,22.66,0,0,0,4.14-1.14,10.36,10.36,0,0,0,4-2.12,11.13,11.13,0,0,0,1.27-1.67c.13-.16.13-.34-.07-.44s-.26.07-.34.2c-.3.52-.69,1-1,1.47a5,5,0,0,1-1.9,1.32c-1,.49-2,.77-3,1.16a23.27,23.27,0,0,1-4.84,1.12,15.36,15.36,0,0,1-4.74.13A37.85,37.85,0,0,1,19.58,68a21.06,21.06,0,0,1-8.09-3.91,15.27,15.27,0,0,1-2.27-2A.3.3,0,0,0,8.81,62Z" transform="translate(-1.58 -30.92)"/><path d="M29.41,43.6a1.54,1.54,0,0,0,.42.17A8.54,8.54,0,0,1,33,45.37a7.81,7.81,0,0,1,2.66,3.42,13.23,13.23,0,0,1,1,6.56,10.1,10.1,0,0,1-2.14,5.08,6.65,6.65,0,0,1-3.43,2.38c-.58.18-1.14.41-1.71.6a9.83,9.83,0,0,1-4.78.36,8.6,8.6,0,0,1-4.7-1.88,12.55,12.55,0,0,1-2.18-2.19A10.63,10.63,0,0,1,16.12,55a2.35,2.35,0,0,1,0-.75,21.21,21.21,0,0,1,2-6.07,9,9,0,0,1,2-2.47,10.18,10.18,0,0,1,2.12-1.29,8.07,8.07,0,0,1,4.59-1.33A4.13,4.13,0,0,1,29.41,43.6Zm1.05,18.89a8.11,8.11,0,0,0,1.69-.6A8,8,0,0,0,34.92,59a8.29,8.29,0,0,0,1.13-3.26,14.48,14.48,0,0,0-.79-6.6A7.4,7.4,0,0,0,31.45,45c-.75-.35-1.47-.75-2.23-1.08a6.27,6.27,0,0,0-4.51-.13,15.28,15.28,0,0,0-3.77,1.88,7.89,7.89,0,0,0-3,3.83,20.61,20.61,0,0,0-1.32,4.94A6.53,6.53,0,0,0,17,57.6a8.86,8.86,0,0,0,3.3,4.11c1.81,1.39,3.89,1.62,6,1.74A9.59,9.59,0,0,0,30.46,62.49Z" transform="translate(-1.58 -30.92)"/><path d="M24,49.4c.46-.14.58-.42.56-.88a19.44,19.44,0,0,1,.12-2.64c.11-.93.39-1.2,1.42-1.07a10.78,10.78,0,0,0,1.5.18,2.86,2.86,0,0,1,1.84.77,1,1,0,0,1,.3,1.45,15.4,15.4,0,0,0-.85,2.26.5.5,0,0,0,.2.7,3.8,3.8,0,0,1,1.36,1.94A3.71,3.71,0,0,1,30.43,54c-.49,2.86-3.59,3.62-5.32,3.23a4.17,4.17,0,0,1-2.93-2.41,4,4,0,0,1,.13-4.31c.07-.1.17-.19,0-.39a11.38,11.38,0,0,0-1.45,0c-.54.07-1-.28-.86-.8a6.69,6.69,0,0,1,.33-1.39,3.07,3.07,0,0,1,2-1.75c.55-.2.87-.07,1,.51s.23,1.24.34,1.86a.56.56,0,0,1-.28.64c-.23.12-.45.26-.29.65A9.38,9.38,0,0,1,24,49.4Zm1,2.13c0,.35,0,.73.42.88a1.6,1.6,0,0,0,1.46,0,1.21,1.21,0,0,0,.47-.48,34,34,0,0,0,2.22-5.11.6.6,0,0,0-.19-.73,2.87,2.87,0,0,0-1.53-.77c-.6-.06-1.2-.14-1.79-.24s-.74,0-1,.56a5.43,5.43,0,0,0-.24,2.08c0,.45,0,.91.06,1.36C25,49.91,24.92,50.72,25,51.53Zm-2-4.77a.45.45,0,0,0-.65-.31,2.9,2.9,0,0,0-2,2.88c0,.24.1.47.39.46a9.1,9.1,0,0,1,1,.08c.39,0,.81,0,1-.51a.85.85,0,0,1,.33-.4c.28-.19.3-.44.27-.84A6.92,6.92,0,0,0,23,46.76Z" transform="translate(-1.58 -30.92)"/></g></svg>