<svg id="Layer_1" data-name="Layer 1" xmlns="http://www.w3.org/2000/svg" viewBox="0 0 789 220"><defs><style>.cls-1{fill-rule:evenodd;}</style></defs><title>noun_eyes_1654663</title><path class="cls-1" d="M141,220c-37,0-129-41-131-72,0-8,64-46,131-46,57,1,121,21,150,58-21-13-46-22-70-27,2,7,4,14,4,22a53.78,53.78,0,0,1-54,54c-30,0-55-24-55-54,0-9,2-18,6-25-49,5-87,20-87,30C35,183,141,220,141,220ZM471,106C552,23,672,7,789,48,682-35,537-7,471,106Zm98,27c-3,7-5,14-5,22,0,30,25,54,55,54a53.78,53.78,0,0,0,54-54c0-9-2-18-6-25,50,5,87,20,87,30,1,23-106,60-105,60,36,0,129-41,130-72,1-8-64-46-131-46-56,1-121,21-150,58A226.71,226.71,0,0,1,569,133Zm98-3-6-1a44.57,44.57,0,0,1,8,26,43,43,0,0,1-86,0,41.47,41.47,0,0,1,8-25c6-1,12-2,17-2l-1,1a9,9,0,0,1,5-1c7,0,12,6,12,13a11.55,11.55,0,0,1-12,12c-7,0-13-5-13-12,0-2,0-3,1-4a27.92,27.92,0,0,0-6,18,32,32,0,0,0,64,0c0-12-6-21-15-27A194.19,194.19,0,0,1,667,130ZM319,106C237,23,117,7,0,48,107-35,252-7,319,106ZM198,130a88.07,88.07,0,0,0-17-2l1,1c-1-1-3-1-4-1a13.24,13.24,0,0,0-13,13c0,7,6,12,13,12a11.55,11.55,0,0,0,12-12v-4a34.53,34.53,0,0,1,5,18,32.22,32.22,0,0,1-32,32c-17,0-32-15-32-32,0-12,6-21,15-27a194.19,194.19,0,0,0-24,2l7-1c-6,7-9,16-9,26,0,24,20,43,43,43,24,0,44-19,44-43C207,145,204,137,198,130Z" transform="translate(0 0)"/></svg>