<svg id="Layer_1" data-name="Layer 1" xmlns="http://www.w3.org/2000/svg" viewBox="0 0 90 30.92"><defs><style>.cls-1{fill:none;}</style></defs><title>noun_eyes_1006530</title><path class="cls-1" d="M89.87,56.61a17.65,17.65,0,0,0-6.32-2.9c0,.11,0,.22.07.34s.09.38.12.57a9.61,9.61,0,0,1-.13,3.56h0c0,.1-.06.2-.08.3a9,9,0,0,1-2.33,4.09,7.9,7.9,0,0,1-4.4,2.22,7.72,7.72,0,0,1-3.91-.41,9,9,0,0,1-5.56-6.53A19.53,19.53,0,0,0,65,60.09l-.37.48a12.57,12.57,0,0,0-1.26,1.84h0a2,2,0,0,0,.1.26c.59,1.24,2.52,1.69,4.29,1.73,2.44.07,4.88.38,7.27.58a16.24,16.24,0,0,0,7.13-.78,12.67,12.67,0,0,0,1.63-.74,10.58,10.58,0,0,0,1.49-1,14,14,0,0,0,4.31-5.25c.1-.21.18-.42.26-.63Z" transform="translate(-5 -34.54)"/><path class="cls-1" d="M36.72,62h0a6.46,6.46,0,0,0-.15-1A5.41,5.41,0,0,1,36.72,62Z" transform="translate(-5 -34.54)"/><path class="cls-1" d="M32.7,57.69c-1,4.62-5.12,7.77-9.5,7.11-4.58-.69-7.68-5.25-6.94-10.18,0-.29.11-.57.18-.85a17.82,17.82,0,0,0-6.26,3c.07.16.13.34.2.49a14.11,14.11,0,0,0,4.32,5.26,11.55,11.55,0,0,0,1.49,1,14.2,14.2,0,0,0,1.63.74A16.39,16.39,0,0,0,25,65c2.39-.2,4.83-.51,7.27-.59,1.77,0,3.7-.49,4.29-1.72a1.89,1.89,0,0,0,.18-.52A17.16,17.16,0,0,0,32.7,57.69Z" transform="translate(-5 -34.54)"/><path d="M39.46,43.54l-.16-.47c-.61-1.69-1.88-4.31-4.09-4.81a4.06,4.06,0,0,0-.7-.08c-.59,0-1.2,0-1.81-.09-7.87-.57-17-3.67-21.28-3.55a7,7,0,0,0-.85.08,8.55,8.55,0,0,0-1.11.29c-4,1.36-4.64,5.64-4.42,5.68H5a.84.84,0,0,1,.08-.21,5.43,5.43,0,0,1,1.5-1.82,7.7,7.7,0,0,1,2.83-1.38A9.9,9.9,0,0,1,11,36.89a14.93,14.93,0,0,1,7.65,1.37c.67.29,1.32.6,2,.92l1,.49a35.64,35.64,0,0,0,5.93,2.62,56.39,56.39,0,0,0,8.31,1.89,28.25,28.25,0,0,0,3.86.33h0s0-.09-.08-.26S39.56,43.84,39.46,43.54Z" transform="translate(-5 -34.54)"/><path d="M36.84,55.28l-.24-.53a9.47,9.47,0,0,0-.8-1.36c-.17-.25-.35-.53-.53-.82l-.71-.82A15.45,15.45,0,0,0,32.85,50a17.77,17.77,0,0,0-2.16-1.65A18.56,18.56,0,0,0,28.12,47a9.76,9.76,0,0,0-.93-.42c-.62-.24-1.26-.44-1.89-.66l-.74-.17a14.32,14.32,0,0,0-2.23-.41,11.78,11.78,0,0,0-2.21-.14h-.71c-.48,0-.95.09-1.4.14l-.67.08-.65.16-.17,0-1.06.26c-.29.09-.57.2-.84.3l-.27.11a10.39,10.39,0,0,0-1,.41l-.85.5-.2.11-.54.32c-.15.1-.27.2-.4.3l-.17.14-.4.32-.11.09-.36.3-.19.15.08-.05,1.1-.64c.19-.11.39-.25.62-.37l.76-.33.87-.37a8.35,8.35,0,0,1,.8-.25l.19-.06.25-.08c.27-.08.55-.17.84-.24l1.19-.19.62-.1.65,0,.67,0,.66,0a20.42,20.42,0,0,1,2.77.23,13.69,13.69,0,0,1,2,.38l.81.2a24.09,24.09,0,0,1,2.7,1,23.19,23.19,0,0,1,2.49,1.26c.41.21.75.5,1.12.73s.48.31.71.48a3,3,0,0,1,.34.25l.94.77a8.87,8.87,0,0,1,.83.78l.74.74.61.72c.22.26.41.49.58.71a4.9,4.9,0,0,1,.36.52l.58.87.17.26h0S37.06,55.74,36.84,55.28Z" transform="translate(-5 -34.54)"/><path d="M88.81,48l-.25-.2c-.1-.08-.2-.16-.32-.24L88,47.41l-.45-.26-.85-.5a5,5,0,0,0-.62-.26l-.39-.15-.4-.16L85,46l-.45-.16-1.23-.3-.26-.06-.39-.1L82,45.29c-.46,0-.92-.11-1.4-.14h-.72a12.75,12.75,0,0,0-2.21.14,14.2,14.2,0,0,0-2.22.41l-.74.17c-.57.2-1.14.39-1.7.6a8.71,8.71,0,0,0-1.13.48,13.41,13.41,0,0,0-2,1l-.61.37A19,19,0,0,0,67.14,50l-.9.85h0l0,0a10.18,10.18,0,0,0-.78.85c-.12.15-.23.28-.35.41l-.35.42c-.19.28-.36.56-.53.81a9.09,9.09,0,0,0-.8,1.36c0,.1-.08.18-.12.26-.29.62-.45,1-.45,1h0l.75-1.13a8.6,8.6,0,0,1,.94-1.23l.31-.36c.1-.12.19-.24.3-.36l.25-.25.5-.5A11.37,11.37,0,0,1,67.12,51l.52-.42a7.27,7.27,0,0,1,.83-.59l.22-.15c.13-.07.25-.16.37-.24a6.39,6.39,0,0,1,.75-.48A21.48,21.48,0,0,1,72.3,47.9c.15-.08.31-.14.46-.21.73-.3,1.49-.52,2.24-.78a21,21,0,0,1,2.81-.59l.58-.08c.27,0,.54-.06.81-.08l1.38-.07,1.32.07.65,0,.62.1,1.19.2c.38.09.74.22,1.09.32s.69.19,1,.31l.87.37.46.2.31.13c.12.06.21.13.32.19l.29.17.38.22.8.47h0S89.48,48.56,88.81,48Z" transform="translate(-5 -34.54)"/><path d="M94.65,38.91a7.18,7.18,0,0,0-.8-1.51,6.08,6.08,0,0,0-.85-1,6.14,6.14,0,0,0-1.16-.89,7.07,7.07,0,0,0-2.41-.88,5.51,5.51,0,0,0-.85-.07h0c-3.08-.08-8.64,1.49-14.43,2.59a51.78,51.78,0,0,1-8.62,1,3.68,3.68,0,0,0-2.32.93l-.12.09a6.66,6.66,0,0,0-.72.78,9.33,9.33,0,0,0-.75,1.14,17.62,17.62,0,0,0-1.34,3.4h0a33.78,33.78,0,0,0,5.48-.59l1.11-.21.76-.16c1.43-.31,3.06-.72,4.87-1.26,3.7-1.12,6.88-3.44,10.53-4.67.25-.09.5-.16.76-.24a13.7,13.7,0,0,1,5.22-.5c4.62.48,6,3.46,6,3.7h0A3.06,3.06,0,0,0,94.65,38.91Z" transform="translate(-5 -34.54)"/><path d="M37.15,57.69a18.42,18.42,0,0,0-3.69-4.35,23.72,23.72,0,0,0-4.87-3.24c-.44-.21-.9-.43-1.39-.62s-.86-.33-1.41-.5a22.37,22.37,0,0,0-3-.7A19.44,19.44,0,0,0,19.77,48c-.52,0-1,0-1.56.07a14.56,14.56,0,0,0-1.5.19A18.63,18.63,0,0,0,11,50.23a19,19,0,0,0-2.51,1.58c-.81.6-2.76-.1-2.76-.1s2.17,5.64,3.07,6.49,1.78,1.69,2.74,2.45c.46.4,1,.76,1.45,1.12s1,.69,1.5,1,1,.61,1.59.89c.11.07.24.12.36.18l.13.06a7.87,7.87,0,0,0,.74.32l.42.18h0a14.83,14.83,0,0,0,3.32.79,27.15,27.15,0,0,0,3.92.24c2.46,0,4.85-.17,7.28-.09a9.81,9.81,0,0,0,3-.3,4.17,4.17,0,0,0,2.57-1.76,4,4,0,0,0,.4-3A9,9,0,0,0,37.15,57.69ZM36.72,62a6.46,6.46,0,0,0-.15-1,5.41,5.41,0,0,1,.15,1Zm-.21.72c-.59,1.23-2.52,1.69-4.29,1.72-2.44.07-4.88.39-7.27.58a16.24,16.24,0,0,1-7.13-.77,12.72,12.72,0,0,1-1.63-.75,10,10,0,0,1-1.49-1,14.11,14.11,0,0,1-4.32-5.26c-.07-.16-.13-.33-.2-.49a17.64,17.64,0,0,1,6.26-3c-.07.28-.13.56-.18.85-.74,4.93,2.36,9.49,6.93,10.18,4.39.66,8.53-2.49,9.51-7.11a17.16,17.16,0,0,1,4,4.46A1.89,1.89,0,0,1,36.51,62.67Z" transform="translate(-5 -34.54)"/><path d="M91.54,51.81A19.64,19.64,0,0,0,89,50.23a19.28,19.28,0,0,0-5.74-1.95c-.44-.07-1-.13-1.51-.18s-1-.06-1.55-.07a19.44,19.44,0,0,0-3.06.25,22.37,22.37,0,0,0-3,.7c-.55.18-.89.29-1.41.5s-.94.41-1.39.62a23.72,23.72,0,0,0-4.87,3.24,18.27,18.27,0,0,0-3.69,4.36,8.87,8.87,0,0,0-1.06,2.65,4,4,0,0,0,.4,3,4.2,4.2,0,0,0,2.57,1.76,9.51,9.51,0,0,0,3,.3c2.43-.08,4.82.09,7.28.09A25.85,25.85,0,0,0,79,65.21a14.24,14.24,0,0,0,3.27-.77l.06,0h0l.37-.15.78-.34.11-.06.38-.18c.53-.28,1.07-.56,1.58-.89s1-.69,1.5-1,1-.72,1.45-1.12c1-.76,1.84-1.6,2.73-2.45s3.08-6.49,3.08-6.49S92.35,52.41,91.54,51.81Zm-1.93,5.43a14,14,0,0,1-4.31,5.25,11.55,11.55,0,0,1-1.49,1,13.32,13.32,0,0,1-1.63.74,16.24,16.24,0,0,1-7.13.78c-2.39-.2-4.83-.51-7.27-.58-1.77,0-3.7-.49-4.29-1.73a1.17,1.17,0,0,1-.1-.26h0a13.51,13.51,0,0,1,1.27-1.84c.12-.16.23-.32.37-.48a18.79,18.79,0,0,1,2.3-2.23,9,9,0,0,0,5.56,6.53,7.7,7.7,0,0,0,3.91.41,7.93,7.93,0,0,0,4.4-2.22,9,9,0,0,0,2.33-4.09c0-.1.06-.2.08-.3h0a9.62,9.62,0,0,0,.12-3.56c0-.19-.07-.38-.11-.57s0-.23-.07-.34a17.82,17.82,0,0,1,6.32,2.9h0C89.78,56.82,89.71,57,89.61,57.24Z" transform="translate(-5 -34.54)"/></svg>