<?xml version="1.0" encoding="utf-8"?>
<!-- Generator: Adobe Illustrator 23.0.6, SVG Export Plug-In . SVG Version: 6.00 Build 0)  -->
<svg id="Layer_1" data-name="Layer 1" xmlns="http://www.w3.org/2000/svg" viewBox="0 0 40 8.45"><title>noun_eyes_1320646</title><path d="M5.44,24l.15-.11.44-.3.31-.21.38-.24.44-.25.49-.27.54-.27.6-.25a12,12,0,0,1,1.32-.46c.47-.12,1-.23,1.46-.31l.38-.05.19,0h.19l.39,0h.39a11.27,11.27,0,0,1,1.54.07,9.93,9.93,0,0,1,1.48.27c.12,0,.23.06.35.09l.33.11c.22.08.44.14.65.24a9,9,0,0,1,1.12.55l.47.31.41.3.33.29c.11.08.19.18.28.25a5.09,5.09,0,0,1,.36.39l.13.14a.06.06,0,0,0,.09,0,.05.05,0,0,0,0-.08L20.54,24c-.08-.09-.18-.24-.35-.41s-.16-.18-.27-.28L19.59,23l-.4-.33-.47-.33a8.71,8.71,0,0,0-1.14-.63c-.21-.1-.43-.18-.66-.27l-.34-.11-.36-.12a11.37,11.37,0,0,0-3.12-.41h-.39l-.4,0H12.1l-.19,0-.4.05A12,12,0,0,0,10,21.2l-.71.22-.34.13-.32.13c-.22.08-.42.19-.61.28l-.56.3-.49.3c-.15.1-.3.19-.43.29l-.37.27c-.1.09-.21.17-.3.24s-.31.28-.4.36l-.14.13a.09.09,0,0,0,0,.13.09.09,0,0,0,.12,0Z" transform="translate(-5 -20.78)"/><path d="M16,24.53a2.2,2.2,0,0,0,.91-1.66,1.43,1.43,0,0,0,0-.29,2.75,2.75,0,0,1-1.33,1.8,9.53,9.53,0,0,0-1.56-.3,3.6,3.6,0,0,0,.48-1.46,9.31,9.31,0,0,1-.89,1.44c-.17,0-.35,0-.52,0a8.42,8.42,0,0,0-1,.07,3.32,3.32,0,0,1-1-1.68,1.93,1.93,0,0,0,0,.24,2.89,2.89,0,0,0,.39,1.53c-.35.06-.69.14-1,.23A2.89,2.89,0,0,1,9,22.48a3.45,3.45,0,0,0,.79,2.12l-.39.13A4.5,4.5,0,0,1,8,23.4a5,5,0,0,0,.86,1.51l-.64.26a3.73,3.73,0,0,1-1.63-1.56,3.05,3.05,0,0,0,1.31,1.7l-.53.24a3.23,3.23,0,0,1-1.93-1.37,2.69,2.69,0,0,0,2,1.78l.06.09a5.89,5.89,0,0,1-1,.1A4.23,4.23,0,0,1,5,25.9a3.53,3.53,0,0,0,2.06.6,4.53,4.53,0,0,0,.74-.07,6.69,6.69,0,0,0,.72.69,1.56,1.56,0,0,0-1,.82,2.74,2.74,0,0,1,1.29-.6l.55.37a1.75,1.75,0,0,0-.78.81,3.37,3.37,0,0,1,1.15-.58,7.86,7.86,0,0,0,.71.36,1.3,1.3,0,0,0-.7.74,3,3,0,0,1,1-.59,11.12,11.12,0,0,0,3.85.75l0,0c.08,0,.21,0,.34,0h.25a.48.48,0,0,1,.12,0,3.51,3.51,0,0,0,1.87-3.12,3.11,3.11,0,0,0,0-.43c1.07.5,1.89,1.15,1.89,1.83,0,1-1.05,1.4-1.73,1.73a19.26,19.26,0,0,1,2.85-.31,5.82,5.82,0,0,1,1.18.11A8.91,8.91,0,0,0,16,24.53Zm-1,1.54a.36.36,0,0,1-.72,0,.37.37,0,0,1,.36-.37A.37.37,0,0,1,15,26.07Zm-4.71-.8a4.91,4.91,0,0,0,0,.55,4.24,4.24,0,0,0,.87,2.47,5.13,5.13,0,0,1-2.3-2.05A5.29,5.29,0,0,1,10.33,25.27Zm6.57.82a3.49,3.49,0,0,1-2.22,3.08,11.55,11.55,0,0,1-2.7-.54,4.05,4.05,0,0,1-1.44-2.82,5.34,5.34,0,0,1,.09-.68,7,7,0,0,1,2.08-.43,1.6,1.6,0,0,0-.46,1.11,1.57,1.57,0,0,0,3.14.07.42.42,0,0,1-.14-.32.46.46,0,0,1,.06-.23,1.81,1.81,0,0,0-.18-.37,12.83,12.83,0,0,1,1.72.57A3.64,3.64,0,0,1,16.9,26.09Z" transform="translate(-5 -20.78)"/><path d="M29.44,24.21l.13-.14a5.09,5.09,0,0,1,.36-.39c.09-.08.17-.17.28-.26l.34-.28.4-.31.47-.3A9.92,9.92,0,0,1,32.55,22c.2-.09.42-.16.64-.24l.34-.1.34-.1a11.41,11.41,0,0,1,1.48-.26,11.27,11.27,0,0,1,1.54-.07h.39c.14,0,.26,0,.39,0h.19l.19,0,.38.05a13,13,0,0,1,1.46.31,11.33,11.33,0,0,1,1.32.46l.6.25.54.27.49.27.44.25.38.23.31.21.44.31.15.1h0a.08.08,0,0,0,.11,0,.07.07,0,0,0,0-.12l-.14-.13a4.47,4.47,0,0,0-.41-.36l-.3-.25-.36-.27L43,22.55l-.49-.3c-.18-.1-.36-.2-.56-.29s-.39-.2-.61-.28l-.32-.14-.34-.12c-.23-.09-.47-.15-.71-.22a14.08,14.08,0,0,0-1.52-.32l-.4,0-.19,0-.2,0-.41,0H36.9a11.37,11.37,0,0,0-3.12.41l-.36.11c-.11,0-.23.07-.34.12s-.45.17-.66.27a8.7,8.7,0,0,0-1.14.62l-.47.33-.4.33-.33.31a3.45,3.45,0,0,0-.27.29,3.22,3.22,0,0,0-.35.41l-.12.14a.07.07,0,0,0,0,.09A.06.06,0,0,0,29.44,24.21Z" transform="translate(-5 -20.78)"/><path d="M42.2,26.43a4.63,4.63,0,0,0,.74.07A3.53,3.53,0,0,0,45,25.9a4.23,4.23,0,0,1-1.46.25,5.89,5.89,0,0,1-1-.1l.06-.09a2.69,2.69,0,0,0,2-1.78,3.23,3.23,0,0,1-1.93,1.37l-.53-.24a3.05,3.05,0,0,0,1.31-1.7,3.78,3.78,0,0,1-1.63,1.56l-.64-.26A5,5,0,0,0,42,23.4a4.61,4.61,0,0,1-1.36,1.33l-.39-.13A3.45,3.45,0,0,0,41,22.48a2.89,2.89,0,0,1-1.44,1.93c-.33-.09-.67-.17-1-.23A2.89,2.89,0,0,0,39,22.65a1.93,1.93,0,0,0,0-.24,3.32,3.32,0,0,1-1,1.68,8.42,8.42,0,0,0-1-.07c-.17,0-.35,0-.52,0a8.6,8.6,0,0,1-.89-1.44A3.6,3.6,0,0,0,36,24.08a9.53,9.53,0,0,0-1.56.3,2.75,2.75,0,0,1-1.33-1.8,1.43,1.43,0,0,0,0,.29A2.21,2.21,0,0,0,34,24.53,8.93,8.93,0,0,0,28.69,29a6.56,6.56,0,0,1,1.18-.1,19.26,19.26,0,0,1,2.85.31C32,28.89,31,28.46,31,27.49c0-.69.82-1.33,1.89-1.83a3.11,3.11,0,0,0,0,.43,3.48,3.48,0,0,0,1.87,3.11h.72l0,0a10.85,10.85,0,0,0,3.84-.76,3.15,3.15,0,0,1,1,.6,1.32,1.32,0,0,0-.69-.74c.24-.11.48-.23.71-.36a3.16,3.16,0,0,1,1.14.58,1.69,1.69,0,0,0-.77-.81l.55-.37a2.61,2.61,0,0,1,1.28.6,1.56,1.56,0,0,0-1-.82A6.69,6.69,0,0,0,42.2,26.43Zm-1.06-.19a5.13,5.13,0,0,1-2.3,2.05,4.34,4.34,0,0,0,.87-2.48,4.9,4.9,0,0,0,0-.54A5.29,5.29,0,0,1,41.14,26.24Zm-5.46-.17a.36.36,0,0,1-.36.35.36.36,0,0,1-.36-.35.37.37,0,0,1,.36-.37A.37.37,0,0,1,35.68,26.07Zm-2.58,0a3.64,3.64,0,0,1,0-.56A12.51,12.51,0,0,1,34.88,25a1.44,1.44,0,0,0-.19.37.46.46,0,0,1,.06.23.42.42,0,0,1-.14.32,1.57,1.57,0,1,0,2.68-1.17,6.38,6.38,0,0,1,2.08.43,5,5,0,0,1,.09.67A4.05,4.05,0,0,1,38,28.63a11.55,11.55,0,0,1-2.7.54A3.49,3.49,0,0,1,33.1,26.09Z" transform="translate(-5 -20.78)"/></svg>