<?xml version="1.0" encoding="utf-8"?>
<!-- Generator: Adobe Illustrator 23.0.6, SVG Export Plug-In . SVG Version: 6.00 Build 0)  -->
<svg version="1.1" id="Layer_1" xmlns="http://www.w3.org/2000/svg" xmlns:xlink="http://www.w3.org/1999/xlink" x="0px" y="0px"
	 viewBox="0 0 83.8 99.9" style="enable-background:new 0 0 83.8 99.9;" xml:space="preserve">
<style type="text/css">
	.st0{stroke:#FFFFFF;stroke-width:2;stroke-miterlimit:10;}
</style>
<title>noun_Man_90699</title>
<path class="st0" d="M81.5,50.6c0.1-0.6,0.2-1.3,0.2-1.9c2.4-4.6,2.1-9.7,2.1-15.2C83.8,15,66.7,0,44.4,0C38.2,0,32.1,0.3,27,2.7
	c-8.6,3.9-8.7,9.8-8.7,9.8c-1.6-1.6-5.7-1.6-7.3-0.4c-8.1,6-11,12.2-11,21.4C0.1,40,2.5,46.3,6.8,51.2c-1.9,2.1-1.9,8.4,0,14.8
	c2.1,7.4,5,11.2,6.9,10.5c0.4-0.1,0.8-0.6,1.1-1.1C22.2,92,33.1,99.9,44.6,99.9S67,92,74.4,75.4c0.2,0.5,0.6,0.9,1.1,1.1
	c1.9,0.6,4.8-3.2,6.9-10.5S84.3,51.4,81.5,50.6z M44.6,95.2c-13.3,0-25.7-14.5-30.7-39.2c-0.4-2.1-0.7-4.2-0.8-6.3H13
	c0.3-6.1,2.4-11.9,6-16.8c0.4,2.8,1.2,5.4,2.3,8c2.7,5.4,12.4,22.6,18.8,23.8L33,50c0,0,9.6,11.4,15.8,13.3
	c7.3,2.2,18.1,0.2,24.4-1.4c0.1,0.4,0.3,0.8,0.4,1.2C67.8,82.8,56.7,95.2,44.6,95.2z"/>
</svg>
