<?xml version="1.0" encoding="utf-8"?>
<!-- Generator: Adobe Illustrator 23.0.6, SVG Export Plug-In . SVG Version: 6.00 Build 0)  -->
<svg version="1.1" id="Layer_1" xmlns="http://www.w3.org/2000/svg" xmlns:xlink="http://www.w3.org/1999/xlink" x="0px" y="0px"
	 viewBox="0 0 94.3 99.9" style="enable-background:new 0 0 94.3 99.9;" xml:space="preserve">
<style type="text/css">
	.st0{stroke:#FFFFFF;stroke-miterlimit:10;}
</style>
<title>noun_Woman_90692</title>
<path class="st0" d="M74.4,9.1c0,0-23.9-22.6-52.1,3.4c0,0-15.2,12.4-12.1,49.3c0,0,2.5,26-10.2,29.1c0,0,12.7-0.9,17.1-8.1
	c0,0,1.2,7.1-8.1,9.6c0,0,16.4,0.6,24.7-6.5c0.5,0.6,0.9,1.2,1.4,1.9c2.4,3.2,5.3,6,8.6,8.4c2.9,2.3,6.5,3.5,10.2,3.7
	c3.7-0.2,7.3-1.4,10.2-3.7c1.2-0.9,2.4-1.9,3.5-2.9C76,91,92.1,83.5,94.2,58.6C94.2,58.7,97.3,10.3,74.4,9.1z M53.9,96.7
	c-3.1-0.1-6-1.2-8.4-3.1c-4.2-2.9-8.1-7.7-11.3-12.5c-2.6-4-4.8-8.2-6.4-12.7c-0.1-0.3-0.2-0.5-0.3-0.8c-0.2-1.7,0-3.3,0.6-4.9
	c0,0,8.7-21.4,22.3-24.2c0,0-5.3,8.1-9.9,10.5c0,0,22.6-3.4,33.2-11.2c0,0,1.9-0.3,1.9,3.4c0,0,1.5,12.1,5.6,17.1
	c0,2.6-0.1,5.2-0.5,7.8l-0.2,0.6c-0.2,0.5-0.4,1.1-0.6,1.7c-2.4,6.3-5.7,12.1-9.8,17.4c-2.2,3-4.9,5.6-7.9,7.8
	C59.8,95.5,56.9,96.6,53.9,96.7z"/>
</svg>
