<?xml version="1.0" encoding="utf-8"?>
<!-- Generator: Adobe Illustrator 23.0.6, SVG Export Plug-In . SVG Version: 6.00 Build 0)  -->
<svg version="1.1" id="Layer_1" xmlns="http://www.w3.org/2000/svg" xmlns:xlink="http://www.w3.org/1999/xlink" x="0px" y="0px"
	 viewBox="0 0 96.1 100" style="enable-background:new 0 0 96.1 100;" xml:space="preserve">
<style type="text/css">
	.st0{stroke:#FFFFFF;stroke-width:2;stroke-miterlimit:10;}
</style>
<title>noun_Woman_90688</title>
<path class="st0" d="M72.9,84.1c5.1,1.6,15.5,2.1,15.5,2.1s5.7-15.9,7.1-28.1C100.1,19.5,74.2,0,48,0S-4,18.5,0.5,58.1
	c1.4,12.2,7.1,29.1,7.1,29.1s10-1,15.2-2.6C30,95.2,42.1,100,48,100C55.5,100,65.7,94.7,72.9,84.1z M45.4,94.9
	c-9.3-1.4-24.6-13.5-29.5-37.7c-0.4-2.2-0.7-4.5-0.9-6.8h18.7l1-7.3l1.8,7.3H81c-0.1,2.3-0.4,4.6-0.9,6.8
	C77.6,69.5,62.9,98.6,45.4,94.9z"/>
</svg>
