<?xml version="1.0" encoding="utf-8"?>
<!-- Generator: Adobe Illustrator 23.0.6, SVG Export Plug-In . SVG Version: 6.00 Build 0)  -->
<svg version="1.1" id="Layer_1" xmlns="http://www.w3.org/2000/svg" xmlns:xlink="http://www.w3.org/1999/xlink" x="0px" y="0px"
	 viewBox="0 0 80.4 100.1" style="enable-background:new 0 0 80.4 100.1;" xml:space="preserve">
<style type="text/css">
	.st0{stroke:#FFFFFF;stroke-width:2;stroke-miterlimit:10;}
</style>
<title>noun_Man_90691</title>
<path class="st0" d="M78.6,49.7C79,38.1,80.4,5.5,55.7,2C50.6,0.6,45.3,0,40,0.1C34.5-0.1,45.7-0.1,25.1,2C-1.5,2.6,1.3,38.5,1.5,50
	c-2,2.1-2,8.6-0.1,15.3c2.2,7.5,5.1,11.5,7.1,10.8C8.8,76,9,75.8,9.2,75.6c7.6,16.6,18.9,24.5,31,24.5s23.4-7.9,31-24.5
	c0.2,0.2,0.4,0.4,0.7,0.5c2,0.7,4.9-3.3,7.1-10.8C81,58.2,80.9,51.4,78.6,49.7z M73.5,51.6c0-0.4-0.1-0.8-0.2-1.2
	c0,0-4.6,15.9-3.6,14.9c-6.6,18-17.6,29.6-29.4,29.6C11.5,92.2,7.6,50.5,7.6,50.5c-0.1,0.7-0.4,2.1-0.5,1.7
	c-0.5-2.3-0.8-4.7-0.9-7.1l5.4-7.4l0.6-16l25.6,7.7l6.2-5.5l-1.9,6.6c0,0,4.3-4.2,9-9.3c-2.5,4.4-5.1,8.2-5.1,8.2l21.7-7.7l0.6,16
	l5.6,7.7l0.1,0.8C74,48,73.8,49.8,73.5,51.6z"/>
</svg>
