<?xml version="1.0" encoding="utf-8"?>
<!-- Generator: Adobe Illustrator 23.0.6, SVG Export Plug-In . SVG Version: 6.00 Build 0)  -->
<svg version="1.1" id="Layer_1" xmlns="http://www.w3.org/2000/svg" xmlns:xlink="http://www.w3.org/1999/xlink" x="0px" y="0px"
	 viewBox="0 0 78.3 100" style="enable-background:new 0 0 78.3 100;" xml:space="preserve">
<style type="text/css">
	.st0{stroke:#FFFFFF;stroke-width:2;stroke-miterlimit:10;}
</style>
<title>noun_Man_90694</title>
<path class="st0" d="M8.3,76.6c0.4-0.1,0.8-0.6,1.1-1.1C16.8,92.1,27.7,100,39.2,100S61.6,92.1,69,75.5c0.2,0.5,0.6,0.9,1.1,1.1
	c1.9,0.6,4.8-3.2,6.9-10.5s1.8-14.6-1-15.5C80.3,19.4,60.5-1.3,39.1,0.1C17.9-1.3-1.9,19.4,2.4,50.6c-2.8,0.8-3.1,8.1-1,15.5
	S6.4,77.2,8.3,76.6z M39.3,95.2C26,95.2,13.6,80.7,8.6,56c-1.2-6-1.2-12.2,0.2-18.1l4.4-10.4c0.6-0.9,1.2-1.8,1.9-2.6
	c1.2,3.4,5.6,14.8,10.7,16.6l-2.3-9.8c0,0,5.8,8.5,11.4,11c9.7,4.3,30.3,5,30.3,5c0.2-0.2,0.3-0.5,0.5-0.7c0,1.3,0.1,2.7,0.2,4
	c0.1,4.1,0.9,8.2,2.3,12.1C62.4,82.8,51.3,95.2,39.3,95.2z"/>
</svg>
