<?xml version="1.0" encoding="utf-8"?>
<!-- Generator: Adobe Illustrator 23.0.6, SVG Export Plug-In . SVG Version: 6.00 Build 0)  -->
<svg id="Layer_1" data-name="Layer 1" xmlns="http://www.w3.org/2000/svg" viewBox="0 0 333.25 168.44"><defs><style>.cls-1{fill-rule:evenodd;}</style></defs><title>noun_mouth_1077601</title><path class="cls-1" d="M280.39,367.68c-32.39.3-64.62-7.84-93.67-28.46-23.76-16.87-47.81-33.17-66.61-55.86-1.4-1.68-4-3.09-3.09-5.7s3.63-1.34,5.48-1.64c18.94-3.15,34.57-12.65,48.51-25.26,12.16-11,24-22.37,36.15-33.41,5.7-5.18,12.23-9.27,18.88-13.17,11.26-6.6,22.45-6.5,33.73-.2,5.07,2.83,10.16,5.64,15.21,8.53,5.7,3.28,11.3,3.32,17,0,4.83-2.84,9.81-5.43,14.68-8.21,11.67-6.64,23.1-6.55,34.85.2,17,9.77,30.58,23.53,44.34,37.08,15.73,15.49,33.06,28.28,54.65,34.38a7.38,7.38,0,0,0,1.74.43c2.76,0,6.49-1.52,7.67,1.83.94,2.66-2.5,4.45-4.17,6.45-18.91,22.6-43.13,38.69-66.91,55.53C349.9,360.64,317.62,367.91,280.39,367.68Zm-152-81c1.46,1.7,2,2.52,2.76,3.2,26.18,25,54.64,46.57,89,59.07,18.29,6.64,36.89,9.69,55.77,1.76,5.63-2.37,11.24-1.67,16.94.41a62,62,0,0,0,19.25,4.2c19.57.64,37-6.5,54.07-14.57,23.18-11,43.29-26.74,62.56-43.51,4.61-4,9.47-8.07,12.39-14.23-20.2,7.86-40.08,3.77-59.7-.35-21.42-4.5-41.84-2.15-62.3,5A119,119,0,0,1,277,294.2c-12.57-.3-24.61-3.29-36.7-6-25.65-5.84-51.31-9.86-77.4-2.75C151.9,288.39,140.82,288.73,128.35,286.65Zm308.44-7.93a104.91,104.91,0,0,1-41.45-21.94c-11.58-10.06-22.72-20.66-33.76-31.32-8-7.78-17-14.06-27.66-17.33-16.44-5.06-30,1.47-42.21,12-6,5.2-9.66,5.39-16,.71-1.83-1.35-3.43-3-5.22-4.42-13.84-10.82-28.7-13.31-44.79-5.39-11.17,5.49-20.07,13.92-28.73,22.57-19.18,19.15-38.65,37.8-67.78,44.85,3.58.84,5.52,1.36,7.48,1.74,15.4,3,29.91,0,44.35-5.68,25.54-9.95,51.61-13.29,78.42-4.63,14,4.53,28.65,6.27,42.79,1.37,26.5-9.18,52.54-7.4,78.64,1.08,9.79,3.18,19,7.94,29.65,8.7A89.25,89.25,0,0,0,436.79,278.72Z" transform="translate(-116.84 -199.24)"/></svg>