<?xml version="1.0" encoding="utf-8"?>
<!-- Generator: Adobe Illustrator 23.0.6, SVG Export Plug-In . SVG Version: 6.00 Build 0)  -->
<svg id="Layer_1" data-name="Layer 1" xmlns="http://www.w3.org/2000/svg" viewBox="0 0 73.17 38.14"><title>noun_mouth_731536</title><path d="M50,31.68h0c-27.41,0-36.41,26.46-36.58,36.09a1.74,1.74,0,0,0,.7,1.54,1.6,1.6,0,0,0,1,.33,5.11,5.11,0,0,0,1.53-.35C19.22,68.43,27,65.82,50,65.82h0c20,0,28.57,2.27,32.15,3.35l.65.2.57.18a5,5,0,0,0,1.39.27h0a1.72,1.72,0,0,0,.83-.2,1.45,1.45,0,0,0,.26-.17,1.9,1.9,0,0,0,.73-1.68C86.39,58.13,77.37,31.68,50,31.68ZM83.46,66.4l-1.11-.33c-4.06-1.18-13-3.28-32.35-3.28h0c-21.33,0-30,2.25-33.44,3.33a37.27,37.27,0,0,1,2.64-9.77,1.85,1.85,0,0,1,.23,0,1.62,1.62,0,0,1,.31,0,1.32,1.32,0,0,1,1,.6,5.66,5.66,0,0,1,.43,3.31c-.22,1.09-.33,1.88-.34,2a.51.51,0,0,0,.41.56.5.5,0,0,0,.58-.37,14.16,14.16,0,0,0,.35-2c.46-2.21,1.34-5.16,2.67-6.08A1.33,1.33,0,0,1,26,54.07c2.19.51,1.84,5,1.46,7.14,0,.2-.07.33-.08.37a.52.52,0,0,0,.4.59.52.52,0,0,0,.6-.4s0-.15.06-.35c.44-2.13,1.76-6.89,3.74-8a1.62,1.62,0,0,1,1.47-.1C35.24,54,35.25,56.87,35,59c-.21,1-.31,1.66-.32,1.74a.5.5,0,0,0,.4.57.52.52,0,0,0,.59-.37c0-.09.18-.76.31-1.68.42-1.88,1.27-4.86,2.73-5.94A1.66,1.66,0,0,1,40,53a1.41,1.41,0,0,1,1,.62c1,1.42.83,4.81.59,6.56,0,.35-.08.57-.09.61a.51.51,0,0,0,.43.57.51.51,0,0,0,.57-.42s0-.26.09-.62c.33-2,1.26-5.72,2.92-6.93A1.81,1.81,0,0,1,46.9,53c2.1.39,2.58,4.67,2.6,6.48v1.07a.51.51,0,0,0,.51.51h0a.51.51,0,0,0,.51-.51V59.47c0-1.81.49-6.09,2.59-6.48a1.77,1.77,0,0,1,1.44.35c1.85,1.35,2.69,5.59,2.93,7,0,.29.07.48.08.52a.51.51,0,0,0,.57.41.5.5,0,0,0,.43-.56s0-.27-.09-.62c-.23-1.76-.43-5.14.59-6.56A1.43,1.43,0,0,1,60,53a1.7,1.7,0,0,1,1.31.36c1.46,1.08,2.32,4.06,2.73,5.94a14.29,14.29,0,0,0,.32,1.68.49.49,0,0,0,.58.37.51.51,0,0,0,.41-.57c0-.08-.11-.78-.33-1.75-.28-2.12-.27-5,1.37-5.65a1.62,1.62,0,0,1,1.47.1c2,1.1,3.31,5.87,3.74,8,0,.19.06.31.07.35a.51.51,0,0,0,.59.39.51.51,0,0,0,.4-.59s0-.17-.07-.38c-.39-2.11-.73-6.62,1.45-7.13a1.32,1.32,0,0,1,1.14.24c1.35.93,2.23,3.93,2.69,6.14a14.66,14.66,0,0,0,.33,1.95.51.51,0,0,0,1-.19c0-.09-.11-.85-.32-1.9A5.74,5.74,0,0,1,79.31,57a1.36,1.36,0,0,1,1-.64,2.83,2.83,0,0,1,.5,0A37.16,37.16,0,0,1,83.46,66.4ZM50,34.71h0a31.85,31.85,0,0,1,15.81,3.94c-.8,4-2.53,10-4.2,10.76a.62.62,0,0,1-.62,0c-1.32-.72-1.39-5.3-1.07-9.24.2-1.55.29-2.65.3-2.8a.5.5,0,0,0-1-.11c-.07.51-.21,1.55-.32,2.83-.47,3.56-1.56,9.44-3.71,11.11a1.68,1.68,0,0,1-1.36.39c-3.27-.57-3.32-6-3.32-6.06V35.94a.5.5,0,0,0-.51-.5h0a.5.5,0,0,0-.51.5v9.58s0,5.49-3.32,6.06a1.65,1.65,0,0,1-1.36-.39c-2.15-1.67-3.24-7.55-3.71-11.11-.11-1.28-.25-2.32-.32-2.83a.49.49,0,0,0-.55-.43.51.51,0,0,0-.45.54c0,.15.1,1.25.3,2.81.32,3.93.25,8.51-1.07,9.23a.62.62,0,0,1-.62,0c-1.67-.79-3.4-6.79-4.2-10.76a30.2,30.2,0,0,1,7.62-3A35.07,35.07,0,0,1,50,34.71ZM32.91,46.53a.87.87,0,0,1-.57.41,1.41,1.41,0,0,1-1.11-.29c-1.06-.8-1.72-2.91-2.06-4.49a29.88,29.88,0,0,1,4.07-3C33.55,41.38,33.86,45.19,32.91,46.53ZM27,46.38a1.49,1.49,0,0,1-1.48-.52,33.19,33.19,0,0,1,2.65-2.8C28.2,44.53,28,46.1,27,46.38Zm41.78.27a1.41,1.41,0,0,1-1.11.29.87.87,0,0,1-.57-.41c-1-1.34-.64-5.15-.33-7.33a29.83,29.83,0,0,1,4.06,3C70.49,43.75,69.83,45.85,68.77,46.65Zm5.71-.78a1.48,1.48,0,0,1-1.47.51c-1-.28-1.21-1.84-1.17-3.29A34.5,34.5,0,0,1,74.48,45.87Z" transform="translate(-13.42 -31.68)"/></svg>