<?xml version="1.0" encoding="utf-8"?>
<!-- Generator: Adobe Illustrator 23.0.6, SVG Export Plug-In . SVG Version: 6.00 Build 0)  -->
<svg id="Layer_1" data-name="Layer 1" xmlns="http://www.w3.org/2000/svg" viewBox="0 0 44.48 87"><title>noun_nose_2277392</title><path d="M29.4,84.4a11.36,11.36,0,0,1,.6-4.8,22.5,22.5,0,0,1,.8-2.4l.5-1.2.2-.6v-.6a.1.1,0,0,0-.1-.1c.1,0,.1.1,0,.2V75c-.1.1-.1.2-.2.3l-.4.5a10.47,10.47,0,0,0-.8,1.1,10.46,10.46,0,0,0-1.3,2.3,10.23,10.23,0,0,0-1,5.5,8.87,8.87,0,0,0,.7,2.8,9.74,9.74,0,0,0,1.5,2.4A10.43,10.43,0,0,0,34.3,93,23.57,23.57,0,0,1,31,89.1,10.55,10.55,0,0,1,29.4,84.4Z" transform="translate(-27.65 -6.5)"/><path d="M71.9,79.8a23.74,23.74,0,0,0-1.8-5.9c-1.6-3.8-3.6-7.3-5.5-10.8l-3.3-6.3c-.7-1.5-1.4-2.9-2.1-4.4a57.09,57.09,0,0,1-4.1-11.1A41.88,41.88,0,0,1,54,29.6c.4-7.9,2.8-15.7,5.9-23.1-3.8,7.1-6.8,14.8-7.4,23a38.46,38.46,0,0,0,.8,12.2,65.51,65.51,0,0,0,4.1,11.5c1.2,2.8,2.6,5.5,4,8.2l1.5,2.7c2,3.5,4,6.9,5.7,10.5a27.92,27.92,0,0,1,2,5.5,12.2,12.2,0,0,1,0,5.7,8.35,8.35,0,0,1-3.1,4.7,26.2,26.2,0,0,1-5.2,3A19.46,19.46,0,0,0,67.8,91a9.11,9.11,0,0,0,3.7-4.9A12.31,12.31,0,0,0,71.9,79.8Z" transform="translate(-27.65 -6.5)"/><path d="M63.2,87.7a4.18,4.18,0,0,0-1-.4,7.63,7.63,0,0,0-5.7,1.3h0l-.1.1c-.2.1-.3.3-.4.4a9,9,0,0,1-.9,1,8.78,8.78,0,0,1-1.5,1.2,5.69,5.69,0,0,1-3.5,1A8.27,8.27,0,0,1,46.5,91a18.6,18.6,0,0,1-2.8-2.1c-.8-1-4.4-2.6-7.1-1.3a4.74,4.74,0,0,0-1.8,1.5,12,12,0,0,0,2.8.8c2.6.4,5.9.2,6.2-.5A11.46,11.46,0,0,0,46,91.6a7.68,7.68,0,0,0,3.9,1.7H51a4.25,4.25,0,0,1,1.1-.2A5.93,5.93,0,0,0,54,92a5.39,5.39,0,0,0,1.4-1.6,4.05,4.05,0,0,0,.5-.9c.5.7,3.7.9,6.2.5h0a11,11,0,0,0,2.7-.8A2.92,2.92,0,0,0,63.2,87.7Z" transform="translate(-27.65 -6.5)"/></svg>