<?xml version="1.0" encoding="utf-8"?>
<!-- Generator: Adobe Illustrator 23.0.6, SVG Export Plug-In . SVG Version: 6.00 Build 0)  -->
<svg id="Layer_1" data-name="Layer 1" xmlns="http://www.w3.org/2000/svg" viewBox="0 0 71.59 93"><title>noun_nose_2007052</title><path d="M28.08,93.28h.22a1.5,1.5,0,0,0,.2-3c-5.05-.72-9-3.44-10.53-7.29-2.12-5.28.11-12.33,6.45-20.4C34,50.37,37.25,25.46,39,5.13a1.5,1.5,0,1,0-3-.26c-1.69,19.92-4.79,44.27-13.92,55.9-8.89,11.32-8.64,19-6.87,23.37C17.14,89,22,92.41,28.08,93.28Z" transform="translate(-14.2 -3.5)"/><path d="M82,83c-1.55,3.85-5.48,6.57-10.53,7.29a1.5,1.5,0,0,0,.21,3l.21,0C78,92.41,82.86,89,84.81,84.14c1.78-4.41,2-12-6.87-23.37C68.81,49.14,65.71,24.79,64,4.87a1.5,1.5,0,0,0-3,.26C62.75,25.46,66,50.37,75.58,62.62,81.92,70.69,84.15,77.74,82,83Z" transform="translate(-14.2 -3.5)"/><path d="M26.05,80.76a1.5,1.5,0,1,0,0,3c5,0,7.57,2.68,10.55,5.79,3.13,3.26,6.68,7,13.4,7s10.27-3.69,13.4-7c3-3.11,5.55-5.79,10.55-5.79a1.5,1.5,0,0,0,0-3c-6.27,0-9.7,3.56-12.72,6.71s-5.79,6-11.23,6-8.25-2.93-11.23-6S32.33,80.76,26.05,80.76Z" transform="translate(-14.2 -3.5)"/></svg>