<?xml version="1.0" encoding="utf-8"?>
<!-- Generator: Adobe Illustrator 23.0.6, SVG Export Plug-In . SVG Version: 6.00 Build 0)  -->
<svg id="Layer_1" data-name="Layer 1" xmlns="http://www.w3.org/2000/svg" viewBox="0 0 81.36 91.47"><title>noun_nose_783023</title><path d="M78.62,85.38c-2-1.68-9.12-2.29-16.23,2.46l-2.21,1.5c-3.94,2.7-5.76,4-10,4.13-4.28-.18-6.1-1.43-10-4.13l-2.21-1.5c-7.11-4.76-14.23-4.14-16.22-2.46a1.67,1.67,0,0,0-.58,2c1.25,2.82,7.27,1.91,8.46,1.7a1,1,0,0,0-.35-2c-2.43.43-5.34.37-6.12-.33,1.18-.77,7.12-1.71,13.7,2.69.8.53,1.52,1,2.19,1.49,3.56,2.44,6.22,4.48,11.17,4.48,4.38,0,7.61-2,11.18-4.48L63.5,89.5C70.08,85.1,76,86,77.21,86.81c-.79.7-3.71.76-6.13.33a1,1,0,1,0-.35,2c1.2.21,7.21,1.12,8.47-1.7A1.69,1.69,0,0,0,78.62,85.38Z" transform="translate(-9.97 -4)"/><path d="M21.17,93.17h-.1c-.25,0-6.17-.65-9.27-4.75a9.76,9.76,0,0,1-1.62-7.92c1.13-6.35,4.58-9.93,7.62-13.08,2.09-2.17,4.06-4.22,5.1-6.93a1,1,0,0,1,1.87.71c-1.18,3.09-3.29,5.28-5.53,7.6-3,3.1-6.07,6.3-7.09,12a7.91,7.91,0,0,0,1.24,6.37c2.58,3.4,7.82,4,7.87,4a1,1,0,0,1-.09,2Z" transform="translate(-9.97 -4)"/><path d="M36.49,82.25a1,1,0,0,1-.58-.19c-.29-.21-6.94-5.28-1.08-18.63,2.88-6.55,6.36-19.21,7.67-58.34A1.11,1.11,0,0,1,43.5,4h0a1.1,1.1,0,0,1,1,1.16c-1.33,39.46-4.88,52.3-7.83,59-5.18,11.78.2,16.07.43,16.25a1,1,0,0,1,.2,1.41A1,1,0,0,1,36.49,82.25Z" transform="translate(-9.97 -4)"/><path d="M64.44,82.25a1,1,0,0,1-.6-1.8c.25-.19,5.6-4.45.43-16.21-2.95-6.72-6.51-19.61-7.83-59.08A1.1,1.1,0,0,1,57.4,4h0a1.12,1.12,0,0,1,1,1.09c1.31,39.13,4.78,51.73,7.66,58.28C72,76.71,65.31,81.82,65,82A1,1,0,0,1,64.44,82.25Z" transform="translate(-9.97 -4)"/><path d="M80.14,93.17a1,1,0,0,1-.1-2c.06,0,5.32-.57,7.88-4a7.88,7.88,0,0,0,1.24-6.36c-1-5.75-4.11-9-7.09-12-2.24-2.32-4.35-4.51-5.53-7.6a1,1,0,1,1,1.87-.71c1,2.71,3,4.76,5.1,6.93,3,3.15,6.49,6.73,7.62,13.08a9.76,9.76,0,0,1-1.62,7.92c-3.1,4.1-9,4.73-9.27,4.75Z" transform="translate(-9.97 -4)"/></svg>