<?xml version="1.0" encoding="utf-8"?>
<!-- Generator: Adobe Illustrator 23.0.6, SVG Export Plug-In . SVG Version: 6.00 Build 0)  -->
<svg id="Layer_1" data-name="Layer 1" xmlns="http://www.w3.org/2000/svg" viewBox="0 0 50.67 59.99"><title>noun_nose_1695880</title><path d="M45.39,61.23a16.9,16.9,0,0,0,1.69.47,8,8,0,0,0,4,1,10,10,0,0,0,4.63-1.15,8.21,8.21,0,0,0,4.63-6.71c.35-6.07-3.32-8.68-7.2-11.44A44,44,0,0,1,48.72,40c-5.26-10.78-3-33.15-3-33.38a1,1,0,0,0-1.15-.83,1,1,0,0,0-.77.63c-.1,1-2.33,23.38,3.27,34.61l.08.15.13.12A45.47,45.47,0,0,0,52,45c3.87,2.75,6.67,4.74,6.39,9.74a6.27,6.27,0,0,1-3.59,5.11,8.26,8.26,0,0,1-1.87.7,3.27,3.27,0,0,0,.36-2.23A2.47,2.47,0,0,0,52,56.5c-1-.49-2.23-.3-3.83.58L45,59.21a1.05,1.05,0,0,0-.45.3L41,61.82a10.1,10.1,0,0,1-11.12.2L21.8,57c-1.54-.8-2.8-1-3.8-.5a2.5,2.5,0,0,0-1.29,1.78,3.29,3.29,0,0,0,.36,2.24,8.26,8.26,0,0,1-1.87-.7,6.26,6.26,0,0,1-3.59-5.1c-.29-5,2.51-7,6.39-9.75a46.64,46.64,0,0,0,4.71-3.69l.13-.12L23,41c5.6-11.23,3.37-33.66,3.27-34.61a1,1,0,0,0-1.92.2c0,.23,2.24,22.6-3,33.38A43.58,43.58,0,0,1,17,43.38c-4,2.77-7.6,5.38-7.25,11.46a8.19,8.19,0,0,0,4.62,6.7A10.1,10.1,0,0,0,19,62.69a8,8,0,0,0,3.95-1,17.41,17.41,0,0,0,1.87-.55l4.07,2.51a12.12,12.12,0,0,0,6.41,1.87,12.29,12.29,0,0,0,6.79-2.11Zm3.76-2.5c1.3-.71,1.82-.57,2-.51a.53.53,0,0,1,.25.35c.13.81-.15,1-.26,1.12-.57.47-2,.49-3.58.13Zm-30.49-.15a.6.6,0,0,1,.26-.36.81.81,0,0,1,.31,0,3.51,3.51,0,0,1,1.6.54l1.77,1c-1.65.38-3.09.37-3.67-.11C18.82,59.61,18.54,59.38,18.66,58.58Z" transform="translate(-9.7 -5.53)"/></svg>